<?xml version="1.0" encoding="utf-8"?>
<!-- Generator: Adobe Illustrator 25.0.1, SVG Export Plug-In . SVG Version: 6.00 Build 0)  -->
<svg version="1.1" id="Layer_1" xmlns="http://www.w3.org/2000/svg" xmlns:xlink="http://www.w3.org/1999/xlink" x="0px" y="0px"
	 viewBox="0 0 595.3 220.7" style="enable-background:new 0 0 595.3 220.7;" xml:space="preserve">
<style type="text/css">
	.st0{fill:#FFFFFF;}
</style>
<g>
	<path class="st0" d="M62.7,44h19.7v30.8h26v16.7h-26v39.2c0,3.8,0.1,6.8,0.3,9c0.2,2.2,0.9,4.1,2.1,5.8c1.2,1.6,3,2.3,5.6,2.1
		l18-1.8v16.7l-4.3,0.5c-1.4,0.2-4.6,0.6-9.6,1.2c-4.9,0.6-8.5,0.8-10.8,0.8c-5.8,0-10.7-2.1-14.8-6.2c-4.1-4.1-6.2-11.1-6.2-21
		V91.5H42.3V74.8h12c2.7,0,4.6-0.5,5.8-1.4s1.9-2.2,2.2-3.7s0.4-3.7,0.4-6.6V44z"/>
	<path class="st0" d="M139,94c2.4-5.6,6.4-10.1,11.8-13.8c5.4-3.6,11.3-5.4,17.6-5.4v21.7h-16.7c-3.7,0-6.5,1.3-8.6,3.9
		s-3.1,7.1-3.1,13.4v48.5h-20V74.8h21.7L135,94H139z"/>
	<path class="st0" d="M191.5,159.3c-6.4-3.7-11.4-9-15.1-15.9c-3.7-6.9-5.5-15.3-5.5-24.9s1.8-17.8,5.5-24.8s8.7-12.3,15.1-15.9
		c6.4-3.6,13.7-5.4,21.9-5.4c8.1,0,15.4,1.8,21.8,5.5c6.4,3.7,11.5,9,15.2,15.9s5.5,15.2,5.5,24.8c0,9.7-1.8,18-5.5,24.9
		s-8.7,12.3-15.2,15.9c-6.4,3.7-13.7,5.5-21.8,5.5C205.2,164.8,197.9,163,191.5,159.3z M197.3,95.6c-3.7,5.3-5.6,12.9-5.6,22.9
		s1.9,17.6,5.6,22.9c3.7,5.3,9.1,7.9,16.1,7.9s12.4-2.6,16.1-7.9c3.7-5.3,5.6-12.9,5.6-22.9s-1.9-17.6-5.6-22.9
		c-3.7-5.3-9.1-7.9-16.1-7.9C206.4,87.6,201,90.3,197.3,95.6z"/>
	<path class="st0" d="M264.6,74.8h19.7V171c0,9.9-2.1,16.9-6.2,21s-9.1,6.2-14.8,6.2c-2.3,0-5.9-0.4-10.7-1.3
		c-1-0.1-2.2-0.3-3.5-0.5s-2.9-0.4-4.8-0.7v-18.3l12.3,2c3.7,0.6,5.9-0.6,6.8-3.6c0.8-2.9,1.3-7.1,1.3-12.4L264.6,74.8L264.6,74.8z
		 M274.6,60.6c3.7,0,6.8-1.3,9.4-3.9c2.6-2.6,3.9-5.8,3.9-9.4c0-3.7-1.3-6.8-3.9-9.4c-2.6-2.6-5.8-3.9-9.4-3.9s-6.8,1.3-9.4,3.9
		c-2.6,2.6-3.9,5.8-3.9,9.4c0,3.7,1.3,6.8,3.9,9.4C267.8,59.3,270.9,60.6,274.6,60.6z"/>
	<path class="st0" d="M360,80.7c6.7,5.6,10,13.5,10,23.6v58h-20.8l8.7-21.5h-5.7c-1.2,7.1-4.3,12.9-9.3,17.3
		c-5,4.4-11.2,6.7-18.5,6.7c-6.6,0-12.2-1.3-16.9-3.8c-4.7-2.6-8.3-5.9-10.8-10.2c-2.4-4.2-3.7-8.7-3.7-13.5c0-7.8,3-13.8,8.9-17.9
		c5.9-4.2,14-6.7,24.1-7.6l24-2.2v-6.8c0-4.4-1.4-8.1-4.2-11.1c-2.8-2.9-6.8-4.4-12.2-4.4c-3.9,0-7,0.2-9.3,0.7
		c-2.3,0.4-4.3,1.7-5.9,3.7s-2.4,5.2-2.4,9.5h-20c0-10.4,3.6-17.9,10.8-22.3c7.2-4.4,15.6-6.6,25-6.6
		C343.9,72.3,353.3,75.1,360,80.7z M344.4,144.2c3.7-3.8,5.6-8.7,5.6-14.8v-6.7l-21.5,2.2c-9.8,0.9-14.7,5.1-14.7,12.7
		c0,3.3,1.2,6.2,3.6,8.7c2.4,2.4,5.7,3.7,9.9,3.7C335,149.8,340.7,147.9,344.4,144.2z"/>
	<path class="st0" d="M453.2,81.7c5.1,6.3,7.7,14.1,7.7,23.6v57h-20v-57c0-4.6-1.5-8.3-4.6-11.3c-3.1-2.9-7.8-4.4-14.3-4.4
		c-13.6,0-20.3,4.7-20.3,14v58.7h-20V74.8h20.8L395.8,94h3.8c2-6.1,5.9-11.3,11.6-15.4c5.7-4.2,12-6.3,18.8-6.3
		C440.3,72.3,448.1,75.4,453.2,81.7z"/>
	<path class="st0" d="M524.5,138.3c0-3.1-1.1-5.6-3.3-7.3c-2.2-1.8-4.7-2.8-7.6-3.2l-15.3-1.8c-8.4-1-15.3-3.6-20.4-7.9
		c-5.2-4.3-7.8-10.1-7.8-17.6c0-8.7,3.1-15.5,9.2-20.6s14.4-7.6,24.8-7.6c6.6,0,12.6,1.1,18.3,3.3c5.6,2.2,10.1,5.6,13.6,10.3
		c3.4,4.6,5.2,10.3,5.2,17.1h-18.8c0-6.1-1.6-10.4-4.8-12.9s-7.9-3.8-14.1-3.8c-4.2,0-7.7,1.1-10.5,3.2s-4.2,4.9-4.2,8.5
		c0,3.2,1.1,5.9,3.2,8s5.3,3.4,9.5,3.8l18,2c7.3,0.9,13.1,3.4,17.3,7.6s6.3,9.6,6.3,16.4c0,5.8-1.6,10.9-4.7,15.3
		c-3.1,4.4-7.5,7.8-13.2,10.2s-12.2,3.6-19.5,3.6c-10.6,0-19.4-2.5-26.5-7.4s-10.7-12.8-10.7-23.6h18.8c0,6.3,1.7,10.8,5,13.3
		s8.6,3.8,15.8,3.8c5,0,8.9-1.2,11.8-3.5C523.1,145,524.5,142,524.5,138.3z"/>
</g>
</svg>
