<?xml version="1.0" standalone="no"?>
<!DOCTYPE svg PUBLIC "-//W3C//DTD SVG 20010904//EN"
 "http://www.w3.org/TR/2001/REC-SVG-20010904/DTD/svg10.dtd">
<svg version="1.0" xmlns="http://www.w3.org/2000/svg"
 width="256.000000pt" height="256.000000pt" viewBox="0 0 256.000000 256.000000"
 preserveAspectRatio="xMidYMid meet">
<metadata>
Created by potrace 1.14, written by Peter Selinger 2001-2017
</metadata>
<g transform="translate(0.000000,256.000000) scale(0.100000,-0.100000)"
fill="#000000" stroke="none">
<path d="M2052 2389 c-22 -35 -12 -112 25 -199 3 -8 5 -19 4 -24 -1 -5 18 -30
42 -55 85 -89 126 -143 120 -157 -3 -8 0 -14 6 -14 19 0 83 -110 98 -168 15
-56 12 -102 -9 -148 -14 -31 -20 -30 -70 6 -22 17 -48 30 -58 30 -9 0 -20 4
-25 9 -6 4 -52 16 -103 26 -101 19 -177 19 -652 -5 -124 -7 -253 -9 -287 -5
-61 6 -111 31 -85 41 6 3 10 10 7 14 -3 5 4 14 15 20 30 16 24 30 -14 30 -19
0 -47 5 -63 11 l-28 11 30 12 c31 13 65 42 65 54 0 4 -21 7 -48 7 -71 1 -122
14 -122 30 0 8 -6 15 -12 15 -7 0 -36 12 -65 27 -45 22 -53 30 -53 55 0 21 -5
28 -19 28 -27 0 -84 26 -117 53 -49 41 -70 47 -158 47 -84 0 -86 1 -86 24 0
13 -7 29 -15 36 -12 10 -18 6 -35 -22 -11 -18 -20 -38 -20 -44 0 -6 -11 -21
-25 -34 -14 -13 -25 -34 -25 -46 0 -13 -13 -38 -28 -56 -15 -18 -48 -60 -72
-93 -24 -33 -52 -69 -61 -80 -115 -135 -118 -142 -94 -195 19 -42 60 -70 101
-70 15 0 32 12 48 36 31 47 82 80 156 104 32 10 70 26 83 35 29 19 37 12 65
-60 39 -99 180 -326 227 -365 28 -23 47 -70 51 -129 2 -31 12 -73 20 -93 l17
-37 -34 -38 c-19 -21 -57 -61 -85 -88 -31 -31 -56 -66 -63 -90 -7 -22 -19 -54
-27 -72 -8 -17 -14 -35 -14 -40 0 -4 -10 -27 -22 -50 -22 -42 -23 -42 -4 -90
10 -26 25 -75 32 -108 24 -108 26 -115 39 -115 11 0 69 63 88 96 6 10 -5 28
-36 57 -67 66 -68 98 -9 216 43 87 50 96 92 113 25 10 53 24 63 29 31 17 32 2
2 -36 -15 -20 -29 -54 -32 -75 -6 -41 -15 -29 171 -228 l49 -52 64 0 c36 0 72
-4 81 -9 9 -5 38 -12 65 -16 43 -7 47 -6 47 14 0 36 -47 131 -65 131 -9 0 -30
-9 -46 -21 -16 -11 -45 -23 -65 -26 -35 -6 -39 -3 -120 83 -46 49 -84 94 -84
100 0 7 12 20 27 30 15 9 37 26 48 36 11 11 53 35 92 55 40 19 75 39 79 44 3
5 24 9 47 9 73 0 330 72 454 126 17 8 36 14 41 14 19 0 59 -234 43 -253 -10
-13 -52 -31 -186 -82 -38 -14 -80 -30 -93 -35 -24 -10 -52 -64 -52 -100 0 -11
-13 -47 -30 -80 -30 -60 -42 -150 -19 -150 5 0 35 12 65 26 56 26 65 44 44 84
-7 12 -5 33 5 68 16 52 40 76 91 88 16 4 34 10 39 14 6 3 61 22 124 40 129 38
151 59 151 137 0 67 14 58 43 -30 42 -127 41 -134 -52 -223 -44 -42 -98 -89
-121 -106 -42 -31 -70 -73 -70 -105 0 -10 -17 -48 -39 -85 -38 -66 -55 -124
-39 -134 14 -9 101 15 126 35 21 15 22 20 11 44 -16 35 0 92 38 133 31 33 166
145 257 213 l59 44 -6 116 c-4 64 -9 133 -13 154 -10 62 3 85 95 176 108 107
148 181 188 355 17 72 22 82 64 118 52 44 107 119 141 193 30 68 33 231 4 285
-42 79 -158 190 -197 190 -13 0 -119 68 -131 85 -5 7 -8 6 -8 0 0 -6 5 -16 12
-23 25 -25 -4 -23 -39 3 -63 47 -83 74 -83 116 0 44 -11 56 -28 28z"/>
</g>
</svg>
